<svg xmlns="http://www.w3.org/2000/svg" xmlns:xlink="http://www.w3.org/1999/xlink" width="500" zoomAndPan="magnify" viewBox="0 0 375 112.499997" height="150" preserveAspectRatio="xMidYMid meet" version="1.0"><defs><g/><clipPath id="c675cf5b50"><path d="M 0.828125 0 L 374.167969 0 L 374.167969 112.003906 L 0.828125 112.003906 Z M 0.828125 0 " clip-rule="nonzero"/></clipPath><clipPath id="4c47ba0331"><rect x="0" width="375" y="0" height="113"/></clipPath></defs><g clip-path="url(#c675cf5b50)"><g transform="matrix(1, 0, 0, 1, 0.000000000000000111, 0)"><g clip-path="url(#4c47ba0331)"><g fill="#ffffff" fill-opacity="1"><g transform="translate(0.829651, 88.94528)"><g><path d="M 54.859375 -46.890625 C 52.546875 -49.460938 49.800781 -51.476562 46.625 -52.9375 C 43.445312 -54.40625 40.238281 -55.140625 37 -55.140625 C 32.789062 -55.140625 28.929688 -54.128906 25.421875 -52.109375 C 21.910156 -50.097656 19.144531 -47.335938 17.125 -43.828125 C 15.113281 -40.316406 14.109375 -36.453125 14.109375 -32.234375 C 14.109375 -28.085938 15.128906 -24.257812 17.171875 -20.75 C 19.222656 -17.238281 21.988281 -14.457031 25.46875 -12.40625 C 28.945312 -10.363281 32.789062 -9.34375 37 -9.34375 C 40.175781 -9.34375 43.335938 -10.03125 46.484375 -11.40625 C 49.628906 -12.78125 52.421875 -14.65625 54.859375 -17.03125 L 61.28125 -9.890625 C 57.976562 -6.597656 54.128906 -3.988281 49.734375 -2.0625 C 45.335938 -0.132812 40.910156 0.828125 36.453125 0.828125 C 30.285156 0.828125 24.648438 -0.632812 19.546875 -3.5625 C 14.453125 -6.5 10.4375 -10.46875 7.5 -15.46875 C 4.570312 -20.476562 3.109375 -26.039062 3.109375 -32.15625 C 3.109375 -38.195312 4.585938 -43.71875 7.546875 -48.71875 C 10.515625 -53.726562 14.578125 -57.664062 19.734375 -60.53125 C 24.898438 -63.40625 30.597656 -64.84375 36.828125 -64.84375 C 41.335938 -64.84375 45.742188 -63.941406 50.046875 -62.140625 C 54.359375 -60.335938 58.070312 -57.878906 61.1875 -54.765625 Z M 54.859375 -46.890625 "/></g></g></g><g fill="#ffffff" fill-opacity="1"><g transform="translate(63.291168, 88.94528)"><g><path d="M 28.671875 -49.09375 C 33.617188 -49.09375 38.015625 -48.050781 41.859375 -45.96875 C 45.703125 -43.894531 48.691406 -40.992188 50.828125 -37.265625 C 52.972656 -33.546875 54.046875 -29.273438 54.046875 -24.453125 C 54.046875 -19.566406 52.972656 -15.242188 50.828125 -11.484375 C 48.691406 -7.734375 45.703125 -4.820312 41.859375 -2.75 C 38.015625 -0.675781 33.617188 0.359375 28.671875 0.359375 C 23.660156 0.359375 19.234375 -0.675781 15.390625 -2.75 C 11.546875 -4.820312 8.550781 -7.734375 6.40625 -11.484375 C 4.269531 -15.242188 3.203125 -19.566406 3.203125 -24.453125 C 3.203125 -29.273438 4.269531 -33.546875 6.40625 -37.265625 C 8.550781 -40.992188 11.546875 -43.894531 15.390625 -45.96875 C 19.234375 -48.050781 23.660156 -49.09375 28.671875 -49.09375 Z M 28.671875 -40.125 C 24.273438 -40.125 20.6875 -38.640625 17.90625 -35.671875 C 15.125 -32.710938 13.734375 -28.910156 13.734375 -24.265625 C 13.734375 -19.566406 15.125 -15.75 17.90625 -12.8125 C 20.6875 -9.882812 24.273438 -8.421875 28.671875 -8.421875 C 33.066406 -8.421875 36.632812 -9.882812 39.375 -12.8125 C 42.125 -15.75 43.5 -19.566406 43.5 -24.265625 C 43.5 -28.910156 42.109375 -32.710938 39.328125 -35.671875 C 36.554688 -38.640625 33.003906 -40.125 28.671875 -40.125 Z M 28.671875 -40.125 "/></g></g></g><g fill="#ffffff" fill-opacity="1"><g transform="translate(120.532403, 88.94528)"><g><path d="M 36.265625 -49.09375 C 41.953125 -49.09375 46.394531 -47.425781 49.59375 -44.09375 C 52.800781 -40.769531 54.40625 -36.175781 54.40625 -30.3125 L 54.40625 0 L 43.875 0 L 43.875 -27.390625 C 43.875 -31.046875 42.832031 -33.925781 40.75 -36.03125 C 38.675781 -38.144531 35.8125 -39.203125 32.15625 -39.203125 C 28.238281 -39.140625 25.046875 -37.882812 22.578125 -35.4375 C 20.109375 -33 18.6875 -29.828125 18.3125 -25.921875 L 18.3125 0 L 7.78125 0 L 7.78125 -48.734375 L 18.3125 -48.734375 L 18.3125 -39.390625 C 21.613281 -45.859375 27.597656 -49.09375 36.265625 -49.09375 Z M 36.265625 -49.09375 "/></g></g></g><g fill="#ffffff" fill-opacity="1"><g transform="translate(181.2539, 88.94528)"><g><path d="M 43.6875 -48.734375 L 54.21875 -48.734375 L 54.21875 17.765625 L 43.6875 17.765625 L 43.6875 -8.328125 C 41.914062 -5.460938 39.578125 -3.28125 36.671875 -1.78125 C 33.773438 -0.289062 30.40625 0.453125 26.5625 0.453125 C 21.914062 0.453125 17.835938 -0.597656 14.328125 -2.703125 C 10.816406 -4.804688 8.082031 -7.75 6.125 -11.53125 C 4.175781 -15.320312 3.203125 -19.660156 3.203125 -24.546875 C 3.203125 -29.367188 4.175781 -33.640625 6.125 -37.359375 C 8.082031 -41.085938 10.816406 -43.988281 14.328125 -46.0625 C 17.835938 -48.144531 21.851562 -49.1875 26.375 -49.1875 C 30.28125 -49.1875 33.679688 -48.421875 36.578125 -46.890625 C 39.484375 -45.367188 41.851562 -43.171875 43.6875 -40.296875 Z M 28.765625 -8.328125 C 33.160156 -8.328125 36.742188 -9.804688 39.515625 -12.765625 C 42.296875 -15.734375 43.6875 -19.539062 43.6875 -24.1875 C 43.6875 -28.882812 42.296875 -32.726562 39.515625 -35.71875 C 36.742188 -38.707031 33.160156 -40.203125 28.765625 -40.203125 C 24.367188 -40.203125 20.78125 -38.707031 18 -35.71875 C 15.21875 -32.726562 13.796875 -28.882812 13.734375 -24.1875 C 13.796875 -19.539062 15.21875 -15.734375 18 -12.765625 C 20.78125 -9.804688 24.367188 -8.328125 28.765625 -8.328125 Z M 28.765625 -8.328125 "/></g></g></g><g fill="#ffffff" fill-opacity="1"><g transform="translate(243.715535, 88.94528)"><g><path d="M 18.3125 -39.015625 C 19.96875 -42.316406 22.226562 -44.820312 25.09375 -46.53125 C 27.96875 -48.238281 31.328125 -49.09375 35.171875 -49.09375 L 35.171875 -39.015625 C 30.347656 -39.265625 26.4375 -38.132812 23.4375 -35.625 C 20.445312 -33.125 18.738281 -29.738281 18.3125 -25.46875 L 18.3125 0 L 7.78125 0 L 7.78125 -48.734375 L 18.3125 -48.734375 Z M 18.3125 -39.015625 "/></g></g></g><g fill="#38b6ff" fill-opacity="1"><g transform="translate(278.889776, 88.94528)"><g><path d="M 67.5 0 L 55.96875 0 L 49.828125 -14.46875 L 17.5 -14.46875 L 11.359375 0 L 0.09375 0 L 28.390625 -64.109375 L 39.484375 -64.109375 Z M 33.609375 -52.578125 L 21.53125 -24.09375 L 45.703125 -24.09375 Z M 33.609375 -52.578125 "/></g></g></g><g fill="#38b6ff" fill-opacity="1"><g transform="translate(346.480229, 88.94528)"><g><path d="M 8.421875 0 L 8.421875 -64.109375 L 19.234375 -64.109375 L 19.234375 0 Z M 8.421875 0 "/></g></g></g></g></g></g></svg>